<?xml version="1.0" encoding="UTF-8"?><svg id="_图层_2" xmlns="http://www.w3.org/2000/svg" viewBox="0 0 357.26 65.1"><defs><style>.cls-1{fill:#329b9f;}</style></defs><g id="_图层_1-2"><g><g><path class="cls-1" d="M35.52,18.78l-13.82-8.22c-.5-1.84-2.17-3.2-4.18-3.2s-3.59,1.3-4.14,3.06L4.15,15.54c-2.31,.11-4.15,1.99-4.15,4.31,0,1.47,.74,2.77,1.88,3.55v26.18c-.01,1.37,1.11,2.49,2.49,2.49s2.49-1.12,2.49-2.49V23.37c1.12-.78,1.85-2.06,1.85-3.52,0-.37-.06-.73-.15-1.07l6.44-3.57c.71,.51,1.58,.81,2.52,.81,.89,0,1.73-.27,2.42-.73l13.02,7.75c.4,.24,.84,.35,1.28,.35,.85,0,1.67-.43,2.14-1.2,.71-1.18,.32-2.71-.86-3.41Zm-31.3,2.79c-.95,0-1.73-.77-1.73-1.72s.78-1.72,1.73-1.72,1.73,.77,1.73,1.72-.77,1.72-1.73,1.72Zm13.26-8.16c-.95,0-1.73-.77-1.73-1.72s.78-1.72,1.73-1.72,1.73,.77,1.73,1.72-.77,1.72-1.73,1.72Z"/><path class="cls-1" d="M48.21,28.8c0-2.4-1.95-4.33-4.36-4.33s-4.35,1.93-4.35,4.33c0,1.58,.86,2.95,2.14,3.7-.01,.05-.02,.1-.02,.14v13.65c0,1.38,1.12,2.49,2.5,2.49s2.5-1.11,2.5-2.49v-13.65c0-.16-.02-.32-.05-.48,.99-.8,1.64-2,1.64-3.36Zm-4.39,1.72c-.96,0-1.73-.77-1.73-1.72s.77-1.72,1.73-1.72,1.73,.77,1.73,1.72-.78,1.72-1.73,1.72Z"/><path class="cls-1" d="M61.11,22.62c.82-.78,1.33-1.88,1.33-3.1,0-2.32-1.84-4.19-4.14-4.31L33.09,.35c-1.19-.7-2.72-.31-3.42,.87-.7,1.18-.31,2.7,.88,3.4l23.35,13.77c-.1,.36-.17,.74-.17,1.13,0,1.69,.98,3.13,2.39,3.85l.05,21.62c-1.58,.65-2.69,2.19-2.69,4,0,.17,.03,.33,.05,.49l-11.56,6.62c-1.2,.68-1.61,2.2-.92,3.39,.46,.8,1.31,1.24,2.17,1.24,.42,0,.85-.11,1.24-.33l12.51-7.17c.28,.06,.57,.09,.86,.09,2.41,0,4.35-1.94,4.35-4.33,0-1.06-.39-2.01-1.02-2.76l-.05-23.61Zm-3.32,28.09c-.95,0-1.73-.77-1.73-1.72s.78-1.72,1.73-1.72,1.73,.77,1.73,1.72-.77,1.72-1.73,1.72Zm.26-29.47c-.96,0-1.73-.77-1.73-1.72s.77-1.72,1.73-1.72,1.73,.77,1.73,1.72-.78,1.72-1.73,1.72Z"/><path class="cls-1" d="M28.52,32.15c-.29,0-.56,.03-.83,.08l-7.78-4.65c-.24-2.16-2.06-3.84-4.3-3.84-2.4,0-4.35,1.94-4.35,4.33,0,1.17,.47,2.23,1.23,3.01v20.2c-.83,.79-1.36,1.89-1.36,3.13,0,2.39,1.95,4.33,4.36,4.33,.16,0,.32-.03,.48-.05l10.74,6.09c.39,.22,.81,.32,1.23,.32,.87,0,1.71-.45,2.17-1.25,.69-1.19,.27-2.71-.93-3.39l-9.42-5.33c.04-.24,.08-.48,.08-.72,0-1.67-.96-3.1-2.36-3.83V31.96s.03-.01,.05-.02l6.69,4.01c-.03,.18-.06,.35-.06,.53,0,1.64,.93,3.05,2.28,3.78l-.02,8.96c0,1.37,1.11,2.48,2.49,2.48h.01c1.37,0,2.49-1.1,2.49-2.47l.02-9.55c.88-.8,1.44-1.93,1.44-3.2,0-2.39-1.95-4.33-4.35-4.33Zm-13.07,23.98c-.96,0-1.73-.77-1.73-1.72s.77-1.72,1.73-1.72,1.73,.77,1.73,1.72-.78,1.72-1.73,1.72Zm.12-26.34c-.95,0-1.72-.77-1.72-1.72s.77-1.72,1.72-1.72,1.74,.77,1.74,1.72-.78,1.72-1.74,1.72Zm13.16,8.41c-.96,0-1.73-.77-1.73-1.72s.77-1.72,1.73-1.72,1.73,.77,1.73,1.72-.77,1.72-1.73,1.72Z"/></g><g><path class="cls-1" d="M93.64,60.88h-.29l-8.58-9.82v9.82h-1.3v-13h.29l8.62,9.93v-9.92h1.3l-.04,12.99Z"/><path class="cls-1" d="M104.85,55.99c.03,.88-.08,1.75-.31,2.6-.25,.83-.8,1.53-1.53,1.99-.71,.4-1.52,.6-2.34,.57-1.59,.15-3.1-.73-3.74-2.18-.36-.98-.52-2.02-.47-3.07v-4.63h1.3v4.49c-.03,.75,.03,1.51,.18,2.25,.16,.59,.54,1.1,1.05,1.43,.52,.33,1.12,.5,1.73,.48,.59,.01,1.17-.15,1.68-.46,.49-.3,.86-.76,1.05-1.3,.16-.77,.22-1.56,.18-2.35v-4.54h1.3l-.08,4.72Z"/><path class="cls-1" d="M111.97,51.35l-.64,1.05c-.2-.1-.42-.15-.65-.17-.99,0-1.68,.7-2.07,2.08-.19,1.11-.27,2.23-.22,3.35v3.25h-1.3v-9.65h1.3v1.42c.49-.94,1.42-1.57,2.48-1.66,.39,0,.76,.12,1.09,.33Z"/><path class="cls-1" d="M117.32,52.34h-1.96v8.54h-1.3v-8.54h-1.61v-1.07h1.69v-3.56h1.3v3.56h1.96l-.08,1.07Z"/><path class="cls-1" d="M127.39,55.99c.03,.88-.07,1.75-.3,2.6-.26,.83-.81,1.54-1.56,1.99-.71,.4-1.51,.6-2.33,.57-1.59,.15-3.09-.73-3.74-2.18-.38-.98-.56-2.02-.52-3.07v-4.63h1.3v4.49c-.03,.75,.02,1.51,.17,2.25,.16,.59,.54,1.1,1.05,1.43,.52,.33,1.12,.5,1.73,.48,.59,.01,1.17-.15,1.68-.46,.49-.3,.87-.76,1.07-1.3,.15-.77,.21-1.56,.17-2.35v-4.54h1.3v4.72Z"/><path class="cls-1" d="M134.54,51.35l-.65,1.05c-.2-.1-.42-.15-.65-.17-.99,0-1.68,.7-2.05,2.08-.21,1.1-.29,2.23-.25,3.35v3.25h-1.3v-9.65h1.3v1.42c.49-.94,1.43-1.57,2.5-1.66,.39,0,.77,.12,1.1,.33Z"/><path class="cls-1" d="M137.02,48.33c0,.56-.46,1.01-1.03,1.01-.27,0-.52-.11-.7-.3-.2-.18-.31-.44-.3-.72,0-.27,.1-.53,.3-.72,.18-.19,.44-.3,.7-.3,.56,0,1.02,.45,1.03,1.01Zm-.38,12.55h-1.3v-9.61h1.3v9.61Z"/><path class="cls-1" d="M147.54,60.88h-1.3v-4.51c.03-.74-.02-1.48-.14-2.21-.17-1.18-1.22-2.02-2.4-1.92-.74,0-1.45,.26-2.02,.74-.57,.47-.98,1.11-1.16,1.83-.14,.86-.2,1.73-.17,2.6v3.52h-1.3v-9.66h1.3v1.73c.79-1.21,2.14-1.95,3.59-1.98,.67,0,1.33,.18,1.9,.53,.55,.36,.98,.87,1.23,1.48,.32,.93,.46,1.92,.4,2.9l.07,4.94Z"/><path class="cls-1" d="M159.72,58.97c.04,1-.07,1.99-.35,2.95-.32,.91-.97,1.66-1.82,2.12-.84,.44-1.79,.66-2.74,.64-1.4,.09-2.77-.38-3.82-1.3-.49-.5-.87-1.08-1.14-1.72h1.3c.73,1.25,2.11,1.97,3.55,1.86,1.35,.17,2.68-.48,3.38-1.65,.29-.73,.41-1.52,.36-2.3v-.49c-.92,1.22-2.38,1.9-3.9,1.83-.87,0-1.72-.23-2.48-.65-.75-.42-1.36-1.03-1.79-1.77-1.36-2.39-.52-5.43,1.87-6.79,.74-.42,1.59-.65,2.44-.65,1.5,.02,2.9,.73,3.8,1.92v-1.7h1.3l.05,7.7Zm-1.18-2.94c.08-1.35-.63-2.63-1.82-3.28-.58-.32-1.23-.49-1.88-.48-.68,0-1.35,.16-1.95,.49-.6,.32-1.09,.79-1.44,1.37-.33,.59-.51,1.26-.51,1.94-.02,.98,.37,1.93,1.09,2.6,.74,.67,1.71,1.03,2.7,.99,1.01,.05,1.99-.31,2.73-1,.71-.7,1.1-1.67,1.08-2.67v.04Z"/><path class="cls-1" d="M169.72,60.88h-1.3v-13h1.3v13Z"/><path class="cls-1" d="M180.86,60.88h-1.24v-4.51c.02-.74-.02-1.48-.14-2.21-.17-1.18-1.22-2.02-2.41-1.92-.74,0-1.45,.26-2.02,.74-.56,.48-.97,1.12-1.16,1.83-.14,.86-.2,1.73-.17,2.6v3.52h-1.3v-9.66h1.3v1.73c.79-1.22,2.14-1.96,3.59-1.98,.67,0,1.33,.18,1.9,.53,.55,.36,.99,.87,1.24,1.48,.32,.93,.46,1.92,.4,2.9v4.94Z"/><path class="cls-1" d="M193.04,60.88h-1.23v-1.65c-.92,1.22-2.37,1.92-3.9,1.9-1.33,.02-2.61-.53-3.51-1.51-.93-.95-1.43-2.23-1.4-3.56,0-1.36,.55-2.66,1.55-3.59,.91-.97,2.18-1.5,3.51-1.48,1.53-.03,2.97,.73,3.81,2.02v-5.43h1.18v13.31Zm-1.14-4.76c.02-1.03-.37-2.02-1.08-2.77-.71-.74-1.69-1.15-2.72-1.12-1.38-.05-2.66,.7-3.29,1.92-.7,1.21-.7,2.69,0,3.9,.32,.6,.81,1.09,1.4,1.43,.56,.34,1.21,.52,1.87,.52,.67,0,1.34-.17,1.92-.51,.58-.32,1.07-.8,1.39-1.38,.36-.61,.54-1.3,.55-2h-.05Z"/><path class="cls-1" d="M204.13,55.99c.03,.88-.08,1.75-.31,2.6-.25,.83-.8,1.54-1.55,1.99-.71,.4-1.51,.6-2.33,.57-1.59,.15-3.1-.73-3.74-2.18-.36-.98-.52-2.02-.47-3.07v-4.63h1.3v4.49c-.03,.75,.03,1.51,.18,2.25,.16,.59,.54,1.1,1.05,1.43,.52,.33,1.12,.5,1.73,.48,.59,.01,1.17-.15,1.68-.46,.49-.3,.86-.76,1.05-1.3,.16-.77,.22-1.56,.18-2.35v-4.54h1.3l-.08,4.72Z"/><path class="cls-1" d="M211.71,58.29c.02,.76-.28,1.5-.83,2.03-.55,.53-1.3,.82-2.07,.81-1.1,.05-2.16-.43-2.83-1.3l.78-.88c.47,.64,1.2,1.03,1.99,1.07,.47,.01,.94-.15,1.3-.46,.35-.28,.54-.7,.53-1.14-.01-.49-.25-.94-.65-1.22-.4-.31-.83-.59-1.29-.82-.58-.27-1.11-.63-1.57-1.08-.44-.47-.67-1.09-.66-1.73-.03-.69,.25-1.36,.75-1.83,.51-.47,1.18-.73,1.87-.72,1.03,.06,1.99,.53,2.68,1.3l-.79,.82c-.5-.56-1.19-.9-1.94-.95-.37,0-.73,.13-1.01,.38-.28,.23-.44,.57-.43,.94,0,.64,.6,1.3,1.82,1.9,.6,.29,1.15,.66,1.64,1.12,.47,.47,.73,1.11,.72,1.78Z"/><path class="cls-1" d="M218.18,52.34h-1.96v8.54h-1.3v-8.54h-1.68v-1.07h1.68v-3.56h1.3v3.56h1.96v1.07Z"/><path class="cls-1" d="M224.4,51.35l-.64,1.05c-.21-.1-.43-.15-.66-.17-.98,0-1.66,.7-2.05,2.08-.2,1.09-.27,2.21-.22,3.32v3.25h-1.3v-9.61h1.3v1.42c.49-.94,1.42-1.57,2.48-1.66,.39,.01,.76,.12,1.09,.33Z"/><path class="cls-1" d="M233.54,51.27l-5.72,13.12h-1.3l1.85-4.24-3.9-8.88h1.3l3.32,7.4,3.21-7.4h1.25Z"/><path class="cls-1" d="M241.68,56.37h-7.57v-1.08h7.57v1.08Z"/><path class="cls-1" d="M251.96,60.88h-1.6l-4.67-6.03h-.75v6.03h-1.3v-13h2.6c.98-.03,1.97,.03,2.94,.18,1.55,.31,2.65,1.7,2.6,3.28,.09,1.34-.69,2.58-1.94,3.07-.83,.31-1.71,.46-2.6,.43l4.72,6.05Zm-1.53-9.53c0-.42-.11-.83-.34-1.18-.22-.34-.55-.61-.92-.77-.63-.18-1.28-.25-1.92-.22h-2.3v4.39h2.25c1.47,0,2.44-.33,2.9-1.04,.23-.35,.35-.76,.34-1.18h0Z"/><path class="cls-1" d="M263.79,56.17h-8.62c0,.99,.35,1.94,1,2.68,.66,.74,1.61,1.15,2.6,1.13,.95,.02,1.87-.31,2.6-.92,.41-.38,.76-.82,1.04-1.3l1.05,.55c-.53,1.18-1.5,2.11-2.69,2.6-.61,.22-1.25,.33-1.9,.33-2.68,.08-4.91-2.02-4.99-4.7,0-.11,0-.21,0-.32-.02-1.18,.38-2.34,1.12-3.26,.9-1.19,2.32-1.87,3.81-1.82,1.52-.04,2.97,.65,3.9,1.86,.7,.92,1.08,2.03,1.08,3.19Zm-1.3-1.08c-.21-1.1-.94-2.04-1.96-2.51-.51-.24-1.06-.37-1.63-.36-.89-.02-1.76,.3-2.43,.9-.55,.54-.94,1.22-1.12,1.98h7.14Z"/><path class="cls-1" d="M275.66,60.88h-1.22v-1.65c-.93,1.21-2.37,1.92-3.9,1.9-1.29-.01-2.52-.56-3.39-1.51-.93-.95-1.44-2.23-1.4-3.56-.05-1.34,.46-2.64,1.4-3.59,.91-.97,2.18-1.5,3.51-1.48,1.54-.03,2.98,.73,3.82,2.02v-1.73h1.22l-.04,9.61Zm-1.14-4.76c.02-1.03-.37-2.02-1.08-2.77-.7-.74-1.69-1.15-2.72-1.12-1.37-.06-2.66,.7-3.28,1.92-.7,1.21-.7,2.69,0,3.9,.66,1.19,1.91,1.94,3.28,1.95,.67,0,1.33-.18,1.91-.51,.58-.32,1.07-.8,1.4-1.38,.33-.62,.49-1.3,.48-2Z"/><path class="cls-1" d="M288.04,60.88h-1.24v-1.65c-.93,1.21-2.37,1.92-3.9,1.9-1.33,.02-2.61-.53-3.51-1.51-.93-.95-1.44-2.23-1.42-3.56-.02-1.35,.52-2.65,1.49-3.59,.91-.97,2.19-1.51,3.52-1.48,1.53-.03,2.97,.73,3.81,2.02v-5.43h1.24v13.31Zm-1.16-4.76c.02-1.03-.37-2.02-1.08-2.77-.7-.74-1.69-1.15-2.72-1.12-1.37-.06-2.66,.7-3.28,1.92-.7,1.21-.7,2.69,0,3.9,.66,1.19,1.9,1.94,3.26,1.95,.67,0,1.34-.17,1.92-.51,.59-.32,1.07-.79,1.39-1.38,.34-.61,.51-1.3,.49-2h0Z"/><path class="cls-1" d="M298.92,51.27l-5.77,13.12h-1.3l1.85-4.24-3.9-8.88h1.3l3.35,7.4,3.2-7.4h1.27Z"/><path class="cls-1" d="M312.57,49.16h-2.89v11.7h-1.3v-11.7h-2.9v-1.3h7.1v1.3Z"/><path class="cls-1" d="M323.8,60.88h-1.3v-1.65c-.91,1.2-2.33,1.9-3.84,1.9-1.3,0-2.54-.55-3.42-1.51-.93-.95-1.44-2.23-1.42-3.56-.04-1.34,.47-2.64,1.42-3.59,.91-.97,2.18-1.51,3.51-1.48,1.53-.03,2.97,.73,3.81,2.02v-1.73h1.3l-.06,9.61Zm-1.14-4.76c.02-1.03-.37-2.02-1.08-2.77-.71-.74-1.69-1.15-2.72-1.12-1.38-.05-2.66,.7-3.29,1.92-.7,1.21-.7,2.69,0,3.9,.33,.6,.81,1.09,1.4,1.43,.56,.34,1.21,.52,1.87,.52,.67,0,1.34-.17,1.92-.51,.58-.32,1.07-.8,1.39-1.38,.34-.61,.51-1.3,.49-2Z"/><path class="cls-1" d="M327.63,60.88h-1.3v-13.31h1.3v13.31Z"/><path class="cls-1" d="M339.65,56.17h-8.62c-.02,.99,.33,1.94,.99,2.68,.66,.74,1.61,1.15,2.6,1.13,.95,.03,1.88-.3,2.6-.92,.41-.38,.77-.82,1.05-1.3l1.04,.55c-.53,1.18-1.5,2.11-2.69,2.6-.61,.22-1.25,.33-1.9,.33-2.68,.07-4.92-2.04-4.99-4.73,0-.1,0-.19,0-.29,0-1.18,.38-2.33,1.12-3.26,.9-1.19,2.32-1.87,3.81-1.82,1.52-.04,2.97,.65,3.9,1.86,.71,.91,1.09,2.03,1.09,3.19Zm-1.37-1.11c-.21-1.1-.94-2.04-1.96-2.51-.51-.24-1.06-.37-1.63-.36-.89-.02-1.76,.3-2.43,.9-.55,.54-.94,1.22-1.12,1.98h7.14Z"/><path class="cls-1" d="M350.35,60.88h-1.3v-4.51c.02-.74-.02-1.48-.14-2.21-.17-1.18-1.22-2.02-2.41-1.92-.74,0-1.45,.26-2.02,.74-.57,.47-.98,1.11-1.16,1.83-.15,.86-.21,1.73-.18,2.6v3.52h-1.24v-9.66h1.24v1.73c.8-1.21,2.15-1.95,3.6-1.98,.67,0,1.33,.18,1.9,.53,.55,.36,.99,.87,1.24,1.48,.31,.93,.45,1.92,.4,2.9l.07,4.94Z"/><path class="cls-1" d="M357.26,52.34h-1.96v8.54h-1.3v-8.54h-1.68v-1.07h1.68v-3.56h1.3v3.56h1.96v1.07Z"/><path class="cls-1" d="M234.3,35.83c0,.37-.09,.74-.26,1.07-.17,.35-.51,.59-.9,.64-.4,.08-.81-.06-1.07-.38-.3-.36-.45-.83-.42-1.3V14.62l.38-1.16,.96-.44,1.14,.81,.17,.91v21.09Z"/><path class="cls-1" d="M256.3,13.47c.32-.02,.65,.04,.95,.16,.33,.13,.55,.46,.55,.82,.08,.4-.08,.82-.42,1.05-.3,.25-.68,.39-1.08,.39h-14.14c-.37-.04-.75,.06-1.05,.27-.19,.18-.33,.39-.42,.64-.11,.38-.15,.78-.13,1.17v5.72h13.48c.4-.02,.8,.11,1.12,.36,.29,.24,.45,.6,.43,.98,0,.35-.17,.67-.47,.86-.34,.15-.71,.22-1.08,.21h-13.48v6.77c-.05,.44,0,.89,.17,1.3,.13,.2,.32,.36,.55,.46,.42,.13,.86,.18,1.3,.16h14.13c.41-.02,.81,.1,1.13,.35,.29,.25,.45,.62,.44,1,.03,.36-.15,.71-.46,.91-.34,.19-.73,.29-1.12,.29h-14.26c-.79,.01-1.58-.06-2.35-.21-.58-.08-1.11-.34-1.53-.74-.32-.31-.53-.72-.6-1.16-.06-.55-.09-1.11-.08-1.66V17.04c-.01-.56,.03-1.12,.13-1.66,.08-.42,.29-.81,.6-1.12,.28-.31,.65-.53,1.05-.64,.35-.1,.71-.15,1.08-.16h15.56Z"/><path class="cls-1" d="M284.04,19.6c-.04,.3-.17,.58-.38,.81-.22,.3-.57,.48-.95,.47-.47-.03-.91-.25-1.22-.61-.3-.28-.57-.58-.82-.9-.35-.44-.74-.88-1.16-1.3-.43-.5-.92-.94-1.47-1.3-.63-.39-1.32-.67-2.04-.83-.73-.17-1.47-.28-2.22-.31-.93-.02-1.86,.08-2.76,.31-.85,.22-1.66,.58-2.39,1.05-.76,.55-1.41,1.23-1.92,2.02-.57,.83-.98,1.75-1.23,2.72-.24,.99-.37,2.01-.38,3.03-.02,.87,.01,1.74,.1,2.6,.09,.81,.28,1.61,.55,2.38,.55,1.56,1.59,2.89,2.98,3.78,.68,.46,1.42,.82,2.2,1.08,.78,.25,1.59,.38,2.41,.4,.77,.01,1.53-.06,2.29-.2,.82-.13,1.61-.38,2.35-.75,.69-.36,1.32-.82,1.87-1.37,.48-.44,.92-.92,1.3-1.44l.84-1.3c.21-.39,.52-.73,.88-.99,.35-.19,.78-.14,1.07,.13,.37,.23,.62,.62,.69,1.05-.05,.56-.25,1.09-.59,1.53-.47,.78-1.01,1.5-1.63,2.17-1.19,1.34-2.69,2.38-4.36,3.03-.97,.34-1.99,.53-3.02,.59-1.23,.1-2.46,.05-3.68-.16-1.29-.21-2.54-.65-3.68-1.3-1.02-.53-1.94-1.23-2.73-2.07-.67-.77-1.22-1.65-1.61-2.6-.41-.94-.71-1.93-.88-2.94-.19-1.09-.27-2.19-.26-3.29,0-.93,.07-1.86,.22-2.78,.14-.89,.4-1.77,.75-2.6,.34-.82,.78-1.59,1.3-2.31,.51-.7,1.1-1.34,1.74-1.91,1.32-1.14,2.91-1.92,4.62-2.29,.89-.16,1.8-.24,2.7-.23,.81,0,1.62,.05,2.42,.16,.76,.12,1.51,.32,2.22,.6,.7,.26,1.36,.61,1.96,1.04,.49,.38,1.17,.94,2,1.69,.65,.54,1.2,1.18,1.63,1.91,.19,.38,.29,.81,.27,1.24Z"/><path class="cls-1" d="M305.31,14.36c0-.34,.07-.68,.23-.98,.22-.28,.56-.43,.91-.4,.71-.11,1.37,.38,1.48,1.09,.01,.07,.02,.14,.01,.21v13.66c0,.96-.07,1.92-.23,2.87-.13,.81-.39,1.59-.75,2.31-.37,.7-.85,1.32-1.43,1.86-.62,.61-1.34,1.09-2.13,1.43-.97,.41-2,.67-3.04,.78-1.18,.15-2.37,.19-3.55,.12-.91-.06-1.81-.19-2.69-.4-.92-.21-1.8-.57-2.6-1.07-.8-.5-1.5-1.15-2.05-1.91-.52-.72-.9-1.54-1.12-2.41-.21-1.08-.3-2.18-.27-3.28V14.67c-.04-.45,.06-.91,.29-1.3,.25-.27,.61-.42,.98-.42,.39-.06,.78,.09,1.03,.4,.25,.39,.37,.84,.35,1.3v13.29c-.03,1.05,.1,2.1,.39,3.11,.23,.71,.6,1.37,1.11,1.92,.48,.5,1.05,.91,1.69,1.18,.83,.33,1.71,.53,2.6,.61,.92,.13,1.85,.17,2.78,.1,.93-.06,1.84-.27,2.7-.61,.83-.28,1.56-.79,2.11-1.47,.49-.68,.82-1.45,.96-2.28,.16-.93,.25-1.87,.26-2.81V14.36Z"/><path class="cls-1" d="M330.01,25.32c.41,.33,.78,.71,1.11,1.12,.44,.53,.78,1.12,1.01,1.77,.27,.78,.39,1.6,.36,2.42-.03,.86-.2,1.71-.49,2.52-.32,.81-.8,1.54-1.4,2.16-.63,.67-1.41,1.17-2.29,1.46-.84,.28-1.72,.43-2.6,.43h-10.19c-.56,0-1.13-.06-1.68-.17-.46-.08-.89-.3-1.22-.62-.28-.28-.49-.63-.6-1.01-.11-.5-.16-1.01-.14-1.52V16.31c0-.44,.04-.87,.14-1.3,.08-.36,.25-.69,.49-.96,.27-.28,.62-.47,1-.55,.52-.13,1.06-.18,1.6-.17h10.17c.69-.02,1.37,.05,2.04,.2,.53,.19,1.05,.44,1.53,.73,.71,.47,1.32,1.09,1.78,1.81,.58,.79,.92,1.73,.98,2.7,.08,.88-.02,1.76-.29,2.6-.23,.72-.64,1.37-1.17,1.9l-1.39,1.3c.43,.23,.85,.48,1.25,.75Zm-15.6-1.7h9.8c.81,0,1.61-.14,2.37-.43,.64-.23,1.22-.63,1.66-1.14,.39-.48,.63-1.05,.72-1.66,.08-.53,.08-1.06,0-1.59-.14-.74-.51-1.41-1.04-1.94-.39-.46-.93-.77-1.52-.88-.47-.05-1.26-.08-2.38-.08h-7.8c-.52-.06-1.04,.04-1.49,.3-.26,.25-.4,.61-.36,.98l.05,6.45Zm0,2.41v7.29c-.03,.42,.15,.83,.48,1.09,.57,.3,1.21,.43,1.85,.36h8.01c.85,0,1.7-.12,2.51-.38,.73-.22,1.36-.68,1.79-1.3,.41-.59,.67-1.27,.75-1.99,.08-.75-.02-1.51-.3-2.21-.25-.68-.67-1.29-1.21-1.77-.45-.39-.98-.69-1.55-.87-.71-.18-1.43-.26-2.16-.23h-10.18Z"/><path class="cls-1" d="M354.43,13.47c.32-.02,.65,.04,.95,.16,.33,.14,.54,.46,.55,.82,.08,.4-.08,.82-.42,1.05-.3,.25-.69,.39-1.08,.39h-14.14c-.37-.04-.75,.06-1.05,.27-.18,.18-.33,.4-.43,.64-.09,.38-.13,.78-.12,1.17v5.72h13.48c.4-.02,.8,.11,1.12,.36,.3,.23,.45,.6,.42,.98,.02,.35-.16,.68-.46,.86-.34,.15-.71,.22-1.08,.21h-13.52v6.77c-.05,.44,.01,.89,.17,1.3,.13,.21,.32,.37,.55,.46,.42,.13,.86,.18,1.3,.16h14.13c.41-.03,.81,.1,1.13,.35,.28,.25,.44,.62,.43,1,.04,.36-.13,.72-.44,.91-.34,.19-.73,.29-1.12,.29h-14.18c-.79,.01-1.58-.06-2.35-.21-.58-.08-1.12-.34-1.55-.74-.31-.31-.52-.72-.59-1.16-.07-.55-.1-1.11-.09-1.66V17.04c0-.56,.04-1.12,.14-1.66,.08-.42,.29-.81,.6-1.12,.28-.31,.65-.53,1.05-.64,.35-.1,.71-.15,1.08-.16h15.52Z"/><g><path class="cls-1" d="M144.46,35.24h-1.12v-4.84c0-.87-.26-1.68-.7-2.36,.58,.13,1.18,.22,1.79,.23,.67,0,1.21-.55,1.21-1.22,0-.68-.55-1.22-1.22-1.22-2.12-.08-4.07-1.2-5.2-2.99-.38-.56-1.15-.7-1.7-.31-.56,.38-.7,1.15-.31,1.7,.41,.64,.9,1.21,1.44,1.71h-16.31c1.74-1.6,2.97-3.91,3.35-6.61,0-.06-.01-.11-.01-.17h18.78c.08,0,.17,0,.25,0,.68-.07,1.17-.68,1.1-1.36-.07-.68-.68-1.17-1.36-1.1h-6.8l3.09-2.81s.01-.01,.02-.02c.49-.46,.51-1.22,.06-1.71-.47-.47-1.21-.5-1.73-.09l-5.08,4.63h-7.05l-5.1-4.63c-.5-.45-1.28-.41-1.73,.09-.45,.5-.41,1.28,.09,1.73l3.09,2.81h-6.78c-.08,0-.17,0-.25,0-.68,.07-1.17,.68-1.1,1.36,.07,.68,.68,1.17,1.36,1.1h6.67c-.62,3.86-3.38,6.67-6.67,6.67h0c-.67,0-1.22,.55-1.22,1.22s.55,1.22,1.22,1.22c.62,0,1.22-.07,1.8-.2-.42,.68-.68,1.47-.68,2.33v4.84h-1.12c-.67,0-1.22,.55-1.22,1.22,0,.67,.55,1.22,1.22,1.22h27.91c.67,0,1.22-.55,1.22-1.22,0-.67-.55-1.22-1.22-1.22Zm-19.05,0h-5.29v-4.84c0-1.11,.9-2.01,2.02-2.01h3.28v6.85Zm7.74,0h-5.28v-6.85h5.28v6.85Zm7.67,0h-5.23v-6.85h3.21c1.11,0,2.02,.9,2.02,2.01v4.84Z"/><path class="cls-1" d="M144.46,28.27s-.02,0-.03,0c0,0,0,0-.01,0h.04Z"/></g><path class="cls-1" d="M110.44,21.28s0,0,0-.01v-4.91c.1-1.16-.74-2.18-1.9-2.31h-2.26l.16-.14c.5-.45,.54-1.23,.09-1.73-.45-.5-1.23-.54-1.73-.09l-2.16,1.96h-13.02l-2.16-1.96c-.5-.45-1.28-.41-1.73,.09-.45,.5-.41,1.28,.09,1.73l.16,.14h-2.26c-1.16,.13-2,1.16-1.9,2.31v4.91s0,0,0,.01c-.13,1.18,.72,2.24,1.9,2.37h7.72c.67,.02,1.26-.43,1.42-1.08,.11-.41,.08-.84-.08-1.22,0,0-.04-.07-.09-.15-.04-.06-.09-.13-.15-.2-.07-.1-.16-.19-.26-.29l-3.15-2.86c-.5-.45-1.28-.41-1.73,.09-.45,.5-.41,1.28,.09,1.73l1.46,1.33h-4.96v-4.32h10.91v5.85c.03,.6,.56,1.08,1.22,1.12,0,0,0,0,0,0,0,0,0,0,0,0,.66-.04,1.19-.52,1.22-1.12v-5.85h10.91v4.32h-4.96l1.46-1.33c.5-.45,.54-1.23,.09-1.73-.45-.5-1.23-.54-1.73-.09l-3.15,2.86c-.1,.09-.19,.19-.26,.29-.06,.07-.11,.15-.15,.2-.05,.08-.09,.14-.09,.15-.16,.38-.19,.81-.08,1.22,.16,.65,.75,1.1,1.42,1.08h7.72c1.18-.13,2.03-1.19,1.9-2.37Z"/><path class="cls-1" d="M108.99,30.29c-.01-2.47-2.02-4.46-4.48-4.46h-16.77c-2.46,0-4.46,1.99-4.47,4.46v6.18c.06,.58,.52,1.04,1.1,1.1,.68,.07,1.29-.42,1.36-1.1v-6.18c0-1.11,.91-2.01,2.01-2.02h16.71c1.11,0,2.02,.9,2.02,2.02v4.95h-14.43v-.03c-.72,0-1.31-.59-1.31-1.31s.59-1.31,1.31-1.31h0s11.49-.01,11.49-.01c.58-.06,1.04-.52,1.1-1.1,.07-.68-.42-1.29-1.1-1.36h-11.49c-2.09,0-3.78,1.69-3.78,3.78s1.69,3.78,3.78,3.78h15.73c.59,0,1.05-.42,1.17-.97,.02-.08,.06-.16,.06-.25v-6.18Z"/><g><path class="cls-1" d="M151.64,16.43c-.68,0-1.23,.55-1.23,1.23,0,.68,.55,1.24,1.23,1.24h10.48c.68,0,1.23-.55,1.23-1.24,0-.68-.55-1.23-1.24-1.23h-4v-1.42h4c.68,0,1.23-.55,1.23-1.24,0-.68-.55-1.23-1.24-1.23h-4v-.65c0-.68-.55-1.24-1.24-1.24s-1.24,.55-1.24,1.24v.65h-4c-.68,0-1.23,.55-1.23,1.23,0,.68,.55,1.24,1.23,1.24h4v1.42h-4Z"/><path class="cls-1" d="M174.78,20.84h0s-22.96,0-22.96,0c-.08,0-.17,0-.25,0-.68,.07-1.17,.68-1.1,1.36,.07,.68,.68,1.17,1.36,1.1h22.96c.72,0,1.31,.59,1.31,1.32s-.59,1.31-1.31,1.31h0s-22.96,0-22.96,0c-.08,0-.17,0-.25,0-.68,.07-1.17,.68-1.1,1.36,.07,.68,.68,1.17,1.36,1.1h22.96c2.09,0,3.78-1.69,3.78-3.77s-1.69-3.78-3.78-3.78Z"/><path class="cls-1" d="M169.93,30.13h-6.99c-.68,0-1.24,.55-1.24,1.24s.55,1.24,1.24,1.24h6.99c.72,0,1.31,.59,1.31,1.31s-.59,1.31-1.31,1.31v.02h-12.22v-3.87c0-.68-.55-1.24-1.24-1.24s-1.24,.55-1.24,1.24v5.1c0,.68,.55,1.24,1.24,1.24h13.61v-.02c2.01-.09,3.62-1.73,3.62-3.76s-1.69-3.78-3.78-3.78Z"/><path class="cls-1" d="M151.62,30.13c-.68,0-1.24,.55-1.24,1.24v5.1c0,.68,.55,1.24,1.24,1.24s1.24-.55,1.24-1.24v-5.1c0-.68-.55-1.24-1.24-1.24Z"/><path class="cls-1" d="M177.32,30.13c-.68,0-1.24,.55-1.24,1.24v5.1c0,.68,.55,1.24,1.24,1.24s1.24-.55,1.24-1.24v-5.1c0-.68-.55-1.24-1.24-1.24Z"/><path class="cls-1" d="M177.32,16.43h-4v-1.42h4c.68,0,1.23-.55,1.23-1.24,0-.68-.55-1.23-1.24-1.23h-4v-.65c0-.68-.55-1.24-1.24-1.24s-1.24,.55-1.24,1.24v.65h-4c-.68,0-1.23,.55-1.23,1.23,0,.68,.55,1.24,1.23,1.24h4v1.42h-4c-.68,0-1.23,.55-1.23,1.23,0,.68,.55,1.24,1.23,1.24h10.48c.68,0,1.23-.55,1.23-1.24,0-.68-.55-1.23-1.24-1.23Z"/></g><g><path class="cls-1" d="M200.84,20.15c-2.12-.07-4.07-1.18-5.2-2.98-.37-.56-1.13-.72-1.69-.35-.57,.37-.74,1.13-.37,1.71,1.6,2.48,4.32,3.99,7.27,4.04,.48-.1,.86-.48,.96-.96,.14-.67-.29-1.32-.96-1.46Z"/><path class="cls-1" d="M196.2,14.7c.08,0,.17,0,.25,0,.68-.07,1.17-.68,1.1-1.36-.07-.68-.68-1.17-1.36-1.1h-6.89c-.51,0-.96,.31-1.14,.78l-3.5,8.97s0,.01,0,.02c-.24,.63,.07,1.34,.7,1.58,.15,.05,.3,.08,.46,.08,.51,0,.96-.31,1.14-.78l3.2-8.19h6.05Z"/><path class="cls-1" d="M209.22,12.24c-.68,0-1.24,.55-1.24,1.23V29.73h0v.65h0v3.53c0,.72-.59,1.31-1.31,1.31h-2.55c-.68,0-1.23,.55-1.23,1.24s.55,1.24,1.23,1.24h2.55c1.49,0,2.77-.87,3.39-2.13,.22-.46,.35-.96,.37-1.49h.02V13.47c0-.68-.55-1.23-1.24-1.23Z"/><path class="cls-1" d="M204.74,30.13c.68,0,1.24-.55,1.24-1.24v-8.76c0-.68-.55-1.24-1.24-1.24s-1.24,.55-1.24,1.24v8.76c0,.68,.55,1.24,1.24,1.24Z"/><path class="cls-1" d="M195.47,22.96c-.46-.22-.96-.35-1.49-.37v-.02h-4.85c-.8,0-1.44,.55-1.44,1.24s.65,1.24,1.44,1.24h1.16s0,0,0,0h3.53c.72,0,1.31,.59,1.31,1.31v2.55c0,.68,.55,1.24,1.24,1.24s1.24-.55,1.24-1.24v-2.55c0-1.49-.87-2.77-2.13-3.39Z"/><path class="cls-1" d="M196.37,35.22h-4.86s-.04,0-.04,0c-.72,0-1.31-.59-1.31-1.31v-3.53h0v-1.16c0-.8-.55-1.44-1.23-1.44s-1.24,.65-1.24,1.44v4.85h.02c.02,.53,.15,1.04,.37,1.49,.61,1.26,1.89,2.13,3.39,2.13h1.9s3,0,3,0c.68,0,1.24-.55,1.24-1.24s-.55-1.24-1.24-1.24Z"/></g></g></g></g></svg>