<?xml version="1.0" encoding="UTF-8"?>
<svg id="_图层_2" data-name="图层 2" xmlns="http://www.w3.org/2000/svg" viewBox="0 0 442.77 77.25">
  <defs>
    <style>
      .cls-1 {
        fill: #339498;
      }
    </style>
  </defs>
  <g id="_图层_2-2" data-name=" 图层 2">
    <g>
      <path class="cls-1" d="M41.76,22.17L25.53,12.52c-.59-2.12-2.59-3.76-4.94-3.76s-4.23,1.53-4.82,3.65l-10.82,6c-2.71,.12-4.94,2.35-4.94,5.06,0,1.76,.82,3.29,2.23,4.12v30.82c0,1.65,1.29,2.94,2.94,2.94s2.94-1.29,2.94-2.94V27.58c1.29-.94,2.23-2.47,2.23-4.12,0-.47-.12-.82-.12-1.29l7.53-4.23c.82,.59,1.88,.94,2.94,.94s2-.35,2.82-.82l15.29,9.06c.47,.24,.94,.47,1.53,.47,.94,0,2-.47,2.47-1.41,.82-1.41,.35-3.18-1.06-4ZM4.94,25.46c-1.18,0-2-.94-2-2s.94-2,2-2,2.12,.82,2.12,2-.94,2-2.12,2Zm15.64-9.65c-1.18,0-2-.94-2-2s.94-2,2-2,2,.94,2,2-.94,2-2,2Z"/>
      <path class="cls-1" d="M51.87,57.45c1.65,0,2.94-1.29,2.94-2.94v-16.7c1.18-.82,1.88-2.23,1.88-3.88,0-2.82-2.35-5.06-5.18-5.06s-5.06,2.23-5.06,5.06c0,1.88,1.06,3.53,2.47,4.35v16.23c0,1.65,1.29,2.94,2.94,2.94Zm-.35-25.53c1.06,0,2,.94,2,2s-.82,2-2,2-2-.94-2-2,.94-2,2-2Z"/>
      <path class="cls-1" d="M68.58,17.93L38.93,.41c-1.41-.82-3.18-.35-4,1.06-.82,1.41-.35,3.18,1.06,4l27.52,16.23c-.12,.47-.24,.82-.24,1.29,0,2,1.18,3.65,2.82,4.59v25.41c-1.88,.82-3.18,2.59-3.18,4.71v.59l-13.53,7.76c-1.41,.82-1.88,2.59-1.06,4,.59,.94,1.53,1.41,2.59,1.41,.47,0,.94-.12,1.41-.35l14.7-8.47c.35,.12,.71,.12,1.06,.12,2.82,0,5.06-2.23,5.06-5.06,0-1.29-.47-2.35-1.18-3.29l-.12-27.76c.94-.94,1.53-2.23,1.53-3.65,0-2.71-2.12-4.94-4.82-5.06Zm-.59,41.76c-1.18,0-2-.94-2-2s.94-2,2-2,2,.94,2,2-.82,2-2,2Zm.24-34.7c-1.18,0-2-.94-2-2s.94-2,2-2,2,.94,2,2-.82,2-2,2Z"/>
      <path class="cls-1" d="M33.52,37.93c-.35,0-.71,0-.94,.12l-9.17-5.41c-.24-2.59-2.47-4.47-5.06-4.47-2.82,0-5.06,2.23-5.06,5.06,0,1.41,.59,2.59,1.41,3.53v23.76c-.94,.94-1.65,2.23-1.65,3.65,0,2.82,2.23,5.06,5.18,5.06h.59l12.59,7.18c.47,.24,.94,.35,1.41,.35,1.06,0,2-.47,2.59-1.41,.82-1.41,.35-3.18-1.06-4l-11.06-6.23c0-.24,.12-.59,.12-.82,0-2-1.18-3.65-2.82-4.47v-22.11l7.88,4.71c0,.24-.12,.35-.12,.59,0,1.88,1.06,3.53,2.71,4.47v10.59c0,1.65,1.29,2.94,2.94,2.94s2.94-1.29,2.94-2.94v-11.17c1.06-.94,1.65-2.23,1.65-3.76,.12-2.94-2.23-5.29-5.06-5.18Zm-15.29,28.11c-1.18,0-2-.94-2-2s.94-2,2-2,2,.94,2,2-.94,2-2,2Zm.12-30.94c-1.06,0-2-.94-2-2s.94-2,2-2,2,.94,2,2-.94,2-2,2Zm15.41,9.88c-1.18,0-2-.94-2-2s.94-2,2-2,2,.94,2,2-.82,2-2,2Z"/>
      <path class="cls-1" d="M254.57,14.17c-1.05-.46-1.81-.16-2.27,.89l-.86,1.98c-.46,1.05-.16,1.81,.89,2.27l.16,.07c1.08,.46,1.84,.17,2.31-.89l.82-1.98c.46-1.05,.17-1.81-.89-2.27l-.17-.07Z"/>
      <path class="cls-1" d="M233.36,13.28h25.36c1.16,0,1.75-.58,1.75-1.75v-.13c0-1.16-.58-1.75-1.75-1.75h-10.84v-.53c0-1.21-.59-1.81-1.78-1.81h-.13c-1.19,0-1.78,.6-1.78,1.81v.53h-10.84c-1.16,0-1.75,.58-1.75,1.75v.13c0,1.16,.58,1.75,1.75,1.75Z"/>
      <path class="cls-1" d="M238.3,14.17l-.16,.07c-1.05,.46-1.35,1.22-.89,2.27l.82,1.98c.46,1.05,1.23,1.35,2.31,.89l.17-.07c1.05-.46,1.35-1.22,.89-2.27l-.86-1.98c-.46-1.05-1.22-1.35-2.27-.89Z"/>
      <path class="cls-1" d="M231.62,36.47l.16,.07c1.12,.62,1.96,.35,2.54-.79,.77-1.58,1.32-3.19,1.65-4.84,.33-1.65,.49-3.54,.49-5.67v-1.35h21.97c1.16,0,1.75-.35,1.75-1.05v-.82c0-1.16-.58-1.75-1.75-1.75h-22.43c-1.1,0-1.93,.28-2.49,.84-.56,.56-.84,1.39-.84,2.49v1.65c0,1.87-.13,3.46-.4,4.78s-.72,2.61-1.38,3.89c-.59,1.14-.35,2,.72,2.57Z"/>
      <path class="cls-1" d="M293.14,27.84l.13,.03c1.14,.11,1.77-.41,1.88-1.55l1.28-11.92c.11-1.14-.41-1.77-1.55-1.88l-.16-.03c-1.14-.11-1.77,.41-1.88,1.55l-1.28,11.92c-.11,1.14,.42,1.77,1.58,1.88Z"/>
      <path class="cls-1" d="M295.71,32.78h-7.34V9.07c0-1.16-.58-1.75-1.75-1.75h-.13c-1.16,0-1.75,.58-1.75,1.75v23.71h-4.94V9.07c0-1.16-.58-1.75-1.75-1.75h-.13c-1.16,0-1.75,.58-1.75,1.75v23.71h-7.34c-1.19,0-1.78,.6-1.78,1.81v.1c0,1.21,.59,1.81,1.78,1.81h26.88c1.19,0,1.78-.6,1.78-1.81v-.1c0-1.21-.59-1.81-1.78-1.81Z"/>
      <path class="cls-1" d="M269.4,26.33c.11,1.14,.74,1.66,1.88,1.55l.13-.03c1.16-.11,1.69-.74,1.58-1.88l-1.28-11.92c-.11-1.14-.74-1.66-1.88-1.55l-.17,.03c-1.14,.11-1.66,.74-1.55,1.88l1.28,11.92Z"/>
      <path class="cls-1" d="M305.76,17.73h4.38c-.24,.68-.25,1.27-.02,1.76,.32,.67,1.04,1.14,2.16,1.4l2.33,.53c-2.22,.41-4.9,.66-8.06,.72-1.05,.02-1.58,.55-1.58,1.58v.13c0,1.03,.52,1.54,1.55,1.51,3.69-.07,6.97-.44,9.85-1.12,1.67-.39,3.13-.87,4.43-1.41l9.44,2.17c.97,.22,1.57-.15,1.81-1.12v-.13c.24-.97-.12-1.55-1.09-1.75l-6.35-1.34c1.08-.88,1.81-1.85,2.2-2.91,0-.01,0-.02,0-.03h4.47c1.03,0,1.55-.52,1.55-1.55v-.1c0-1.05-.52-1.58-1.55-1.58h-15.57l.02-.03c.53-.94,.3-1.64-.69-2.08l-.13-.1c-.97-.44-1.71-.18-2.24,.79l-.8,1.42h-6.12c-1.05,0-1.58,.53-1.58,1.58v.1c0,1.03,.53,1.55,1.58,1.55Zm8.06,0h9.12c-.41,.66-1.22,1.3-2.44,1.93-.07,.03-.15,.07-.23,.1l-6.81-1.44,.35-.59Z"/>
      <path class="cls-1" d="M306.15,13.94h.16c1.1,0,1.65-.54,1.65-1.61v-.3h21.08v.3c0,1.08,.55,1.61,1.65,1.61h.16c1.1,0,1.65-.54,1.65-1.61v-.4c0-1.98-.98-2.96-2.93-2.96h-9.2s0-.04,0-.07v-.36c0-1.05-.53-1.58-1.58-1.58h-.56c-1.08,0-1.61,.54-1.61,1.61v.3s.01,.06,.01,.1h-9.2c-1.95,0-2.93,.99-2.93,2.96v.36c0,1.1,.55,1.65,1.65,1.65Z"/>
      <path class="cls-1" d="M305.53,30.38h4.72c-.49,.52-1,1.01-1.57,1.45-.98,.75-2.1,1.39-3.38,1.94-1.05,.37-1.42,1.09-1.09,2.14l.03,.13c.33,1.05,1.03,1.39,2.11,1.02,1.45-.53,2.85-1.29,4.22-2.29s2.57-2.27,3.62-3.8c.14-.21,.23-.4,.29-.59h2.21v5.37c0,1.19,.58,1.78,1.75,1.78h.13c1.16,0,1.75-.59,1.75-1.78v-5.37h2.24c.06,.19,.16,.39,.3,.59,.9,1.34,2.01,2.51,3.34,3.52,1.33,1.01,2.83,1.87,4.5,2.57,1.05,.37,1.75,.03,2.07-1.02l.03-.13c.35-1.05-.01-1.77-1.09-2.14-1.1-.42-2.15-.99-3.16-1.71-.65-.47-1.25-1.03-1.82-1.68h4.75c1.08,0,1.61-.54,1.61-1.61v-.13c0-1.08-.54-1.61-1.61-1.61h-11.17v-.59c0-1.16-.58-1.75-1.75-1.75h-.13c-1.16,0-1.75,.58-1.75,1.75v.59h-11.17c-1.08,0-1.61,.54-1.61,1.61v.13c0,1.08,.54,1.61,1.61,1.61Z"/>
      <path class="cls-1" d="M362.17,30.48h.13c1.05,0,1.58-.54,1.58-1.61V11.11c0-1.05-.53-1.58-1.58-1.58h-.13c-1.05,0-1.58,.53-1.58,1.58V28.86c0,1.08,.53,1.61,1.58,1.61Z"/>
      <path class="cls-1" d="M347.72,36.31l.07,.17c.53,.97,1.26,1.17,2.21,.63,3.07-1.82,5.3-3.99,6.67-6.5,1.37-2.51,2.06-5.5,2.06-8.94v-3.26c0-2.02-1.02-3.03-3.06-3.03h-2.17v-3.69h4.55c1.12,0,1.68-.56,1.68-1.68v-.2c0-1.12-.56-1.68-1.68-1.68h-8c-1.14,0-1.71,.57-1.71,1.71v.13c0,1.14,.57,1.71,1.71,1.71h.07v3.99c0,2.04,1.01,3.06,3.03,3.06h2.17v2.93c0,1.96-.22,3.67-.66,5.14-.44,1.47-1.16,2.81-2.16,4-1,1.2-2.37,2.3-4.1,3.31-.94,.55-1.16,1.28-.66,2.21Z"/>
      <path class="cls-1" d="M351.8,28.63h.1c1.01-.2,1.4-.79,1.19-1.78l-1.15-5.24c-.2-.99-.8-1.38-1.81-1.19h-.1c-.99,.2-1.38,.8-1.19,1.81l1.15,5.2c.2,1.01,.8,1.41,1.81,1.19Z"/>
      <path class="cls-1" d="M339.78,24.81l.13,.1c.44,.33,.85,.44,1.22,.35s.67-.4,.89-.91c.14-.3,.29-.61,.43-.91v12.41c0,1.14,.56,1.71,1.68,1.71h.17c1.1,0,1.65-.56,1.65-1.68v-15.58c0-1.02-.5-1.55-1.45-1.62,.16-.4,.32-.79,.47-1.2,.98-2.54,1.85-5.13,2.62-7.79,.18-.5,.17-.92-.03-1.24-.2-.32-.55-.61-1.05-.87l-.17-.03c-.48-.24-.9-.25-1.25-.02-.35,.23-.62,.62-.82,1.17-1.47,4.81-3.18,9.33-5.14,13.57-.48,1.01-.26,1.86,.66,2.54Z"/>
      <path class="cls-1" d="M362.67,35.19v.1c0,1.27,.63,1.91,1.88,1.91h1.68c1.05,0,1.86-.29,2.4-.86,.55-.57,.82-1.37,.82-2.4V8.94c0-1.08-.54-1.61-1.61-1.61h-.1c-1.1,0-1.65,.54-1.65,1.61v24.37h-1.55c-1.25,0-1.88,.63-1.88,1.88Z"/>
      <path class="cls-1" d="M405.32,33.77c-1.45-.91-2.68-1.9-3.73-2.98,.3-.44,.59-.9,.85-1.36,1.63-2.92,2.45-6.1,2.45-9.55v-5.85c.78-.18,1.19-.72,1.19-1.66v-.13c0-1.19-.59-1.78-1.78-1.78h-6.92v-1.42c0-1.16-.58-1.75-1.75-1.75h-.13c-1.16,0-1.75,.58-1.75,1.75v1.81c0,1.08,.28,1.89,.84,2.44,.56,.55,1.37,.82,2.42,.82h4.28v5.76c0,2.85-.65,5.45-1.94,7.77-.02,.04-.04,.07-.07,.11,0,0-.01-.02-.02-.03-1.31-2.32-1.96-4.93-1.96-7.86v-2.14c0-1.14-.57-1.71-1.71-1.71h-.16c-1.14,0-1.71,.57-1.71,1.71v2.14c0,3.45,.83,6.64,2.5,9.57,.26,.45,.54,.89,.84,1.33-1,1.08-2.18,2.08-3.54,3-.99,.62-1.2,1.42-.63,2.4l.03,.13c.59,1.01,1.38,1.21,2.37,.59,1.53-1.01,2.88-2.13,4.06-3.36,1.23,1.24,2.65,2.37,4.27,3.39,.99,.61,1.77,.41,2.34-.63l.03-.13c.55-.99,.32-1.79-.69-2.4Z"/>
      <path class="cls-1" d="M378.16,29.04c-.04,.17-.08,.34-.08,.55v.1c0,1.1,.54,1.65,1.61,1.65h4.05v2.93h-1.61c-1.05,0-1.58,.53-1.58,1.58v.07c0,1.05,.53,1.58,1.58,1.58h2.01c.99,0,1.73-.26,2.24-.77,.5-.52,.76-1.26,.76-2.22v-3.16h3.26c1.1,0,1.65-.55,1.65-1.65v-.1c0-1.08-.55-1.61-1.65-1.61h-2.79l1.74-2.21c.88-1.19,1.11-2.14,.69-2.87-.42-.72-1.43-1.09-3.03-1.09h-4.72c.24-.54,.48-1.07,.7-1.61,.04-.1,.06-.2,.09-.3h7.12c1.1,0,1.65-.55,1.65-1.65v-.13c0-1.1-.55-1.65-1.65-1.65h-.47l2.38-4.45c.5-.92,.29-1.64-.66-2.14l-.13-.07c-.92-.5-1.64-.3-2.14,.63l-2.96,5.53c-.09,.17-.16,.34-.2,.49h-.92v-3.1h1.38c1.08,0,1.61-.55,1.61-1.65v-.13c0-1.1-.54-1.65-1.61-1.65h-1.38v-1.09c0-1.1-.55-1.65-1.65-1.65h-.13c-1.14,0-1.71,.56-1.71,1.68v1.05h-3.2c-1.1,0-1.65,.55-1.65,1.65v.13c0,1.1,.55,1.65,1.65,1.65h3.2v3.1h-3.95c-1.08,0-1.61,.55-1.61,1.65v.13c0,1.1,.54,1.65,1.61,1.65h1.91c-.36,.88-.82,1.85-1.37,2.9-.74,1.41-1.58,2.77-2.52,4.08-.62,.88-.52,1.64,.3,2.27l.1,.07c.82,.63,1.51,.56,2.09-.19Zm2.65-4.21s.05-.1,.07-.14c.26,.26,.66,.39,1.18,.39h3.62l-1.35,1.65c-.28,.4-.45,.82-.53,1.25h-4.11c-.42,0-.73,.11-.98,.27,.73-1.05,1.43-2.17,2.1-3.41Z"/>
      <path class="cls-1" d="M416.35,10.78c.37,1.12,1.12,1.5,2.24,1.15l.13-.1c1.1-.35,1.46-1.09,1.09-2.21l-.33-1.02c-.37-1.1-1.12-1.47-2.24-1.12l-.13,.1c-1.1,.35-1.46,1.08-1.09,2.17l.33,1.02Z"/>
      <path class="cls-1" d="M414.44,20.13h.17c1.1,0,1.65-.55,1.65-1.65v-2.7h21.87v2.7c0,1.1,.55,1.65,1.65,1.65h.17c1.1,0,1.65-.55,1.65-1.65v-3c0-1.01-.26-1.77-.77-2.29-.52-.52-1.28-.77-2.29-.77h-22.66c-1.01,0-1.77,.26-2.29,.77-.52,.52-.77,1.28-.77,2.29v3c0,1.1,.55,1.65,1.65,1.65Z"/>
      <path class="cls-1" d="M435.66,11.83l.13,.1c1.12,.35,1.87-.03,2.24-1.15l.33-1.02c.37-1.1,.01-1.82-1.09-2.17l-.13-.1c-1.12-.35-1.87,.02-2.24,1.12l-.33,1.02c-.37,1.12-.01,1.86,1.09,2.21Z"/>
      <path class="cls-1" d="M427.13,6.89h.13c.96,0,1.75,.78,1.75,1.75v1.19c0,.96-.78,1.75-1.75,1.75h-.13c-.96,0-1.75-.78-1.75-1.75v-1.18c0-.96,.78-1.75,1.75-1.75Z"/>
      <path class="cls-1" d="M413.92,29.59h12.09v4.48h-2.77c-1.1,0-1.65,.55-1.65,1.65v.17c0,1.1,.55,1.65,1.65,1.65h3.26c2.13,0,3.19-1.07,3.19-3.19v-4.74h10.77c1.12,0,1.68-.57,1.68-1.71v-.13c0-1.12-.56-1.68-1.68-1.68h-10.24l3.68-3.19c1.03-.92,1.64-1.72,1.83-2.4s-.03-1.21-.66-1.6c-.62-.38-1.61-.58-2.95-.58h-12.84c-1.1,0-1.65,.56-1.65,1.68v.13c0,1.12,.55,1.68,1.65,1.68h10.97l-3.26,2.87c-.43,.41-.7,.89-.85,1.42h-12.22c-1.12,0-1.68,.56-1.68,1.68v.13c0,1.14,.56,1.71,1.68,1.71Z"/>
      <path class="cls-1" d="M114.3,73.62l-9.65-3c-1.05-.31-1.73,.07-2.04,1.12l-.07,.1c-.31,1.08,.07,1.76,1.12,2.04l9.65,3.03c1.05,.31,1.73-.07,2.04-1.12l.07-.13c.31-1.05-.07-1.74-1.12-2.04Z"/>
      <path class="cls-1" d="M114.3,57.71c-1.78-.35-3.25-.79-4.41-1.32-1.16-.53-1.98-1.13-2.44-1.81-.23-.37-.45-.66-.67-.9,0-.04,.01-.08,.01-.12v-.16c0-.55-.14-.92-.41-1.12-.27-.2-.71-.3-1.3-.3h-.13c-1.14,0-1.71,.31-1.71,.92v.17c-.02,.64-.29,1.24-.81,1.81-.52,.57-1.31,1.09-2.39,1.56-1.08,.47-2.44,.87-4.08,1.2-.55,.09-.93,.27-1.14,.54-.21,.27-.28,.7-.21,1.27l.03,.2c.18,1.05,.79,1.48,1.84,1.28,2.13-.44,3.97-1.05,5.53-1.84,1.22-.62,2.21-1.29,2.97-2.01,.8,.75,1.89,1.46,3.29,2.14,1.54,.75,3.37,1.34,5.5,1.78,.53,.09,.94,.03,1.25-.18,.31-.21,.49-.58,.56-1.1l.03-.16c.18-1.05-.26-1.67-1.32-1.84Z"/>
      <path class="cls-1" d="M101.19,66.08h-.13c-.61,0-1.07,.1-1.37,.3s-.48,.6-.54,1.22c-.29,1.45-1.3,2.7-3.03,3.75-1.73,1.05-4.35,1.87-7.84,2.44-1.05,.18-1.52,.8-1.38,1.88v.13c.15,1.12,.79,1.59,1.91,1.42,3.89-.7,7.06-1.82,9.53-3.36,2.47-1.54,3.95-3.55,4.43-6.03,.18-1.16-.35-1.75-1.58-1.75Z"/>
      <path class="cls-1" d="M111.24,71.09h.13c1.19,0,1.78-.58,1.78-1.75v-4.54c0-1.05-.27-1.84-.82-2.37-.55-.53-1.34-.79-2.37-.79h-17.65c-1.05,0-1.85,.27-2.39,.81-.54,.54-.81,1.32-.81,2.35v4.81c0,1.16,.59,1.75,1.78,1.75h.13c1.16,0,1.75-.58,1.75-1.75v-4.61h16.73v4.35c0,1.16,.58,1.75,1.75,1.75Z"/>
      <path class="cls-1" d="M89.01,60.08l4.61-2.96c.9-.55,1.05-1.3,.46-2.24l-.03-.13c-.57-.9-1.32-1.05-2.24-.46l-4.61,2.96c-.9,.55-1.05,1.3-.46,2.24l.03,.13c.57,.9,1.32,1.05,2.24,.46Z"/>
      <path class="cls-1" d="M97.87,46.61h-.16c-1.1,0-1.65,.41-1.65,1.22v.43c0,.99,.26,1.73,.77,2.24,.52,.5,1.26,.76,2.22,.76h12.61v.56c0,1.1,.55,1.65,1.65,1.65h.17c1.1,0,1.65-.55,1.65-1.65v-.79c0-.99-.26-1.73-.77-2.24-.52-.5-1.26-.76-2.22-.76h-12.65l.03-.16c0-.83-.55-1.25-1.65-1.25Z"/>
      <path class="cls-1" d="M88.88,51.88c.48,1.03,1.24,1.31,2.27,.82l.1-.07c1.03-.48,1.31-1.24,.82-2.27l-1.25-2.44c-.48-1.03-1.24-1.31-2.27-.82l-.1,.07c-1.03,.48-1.31,1.24-.82,2.27l1.25,2.44Z"/>
      <path class="cls-1" d="M123.79,55.47l-.1,.1c-1.08,.44-1.39,1.19-.96,2.24l1.35,3c.44,1.05,1.2,1.36,2.27,.92l.1-.07c1.05-.44,1.36-1.2,.92-2.27l-1.35-3c-.44-1.05-1.19-1.36-2.24-.92Z"/>
      <path class="cls-1" d="M127.38,50.86l-1.35-3c-.44-1.05-1.19-1.36-2.24-.92l-.1,.1c-1.08,.44-1.39,1.19-.96,2.24l1.35,3c.44,1.05,1.2,1.36,2.27,.92l.1-.07c1.05-.44,1.36-1.2,.92-2.27Z"/>
      <path class="cls-1" d="M151.58,69.9c-.13-1.05-.74-1.54-1.81-1.45l-.17-.03c-1.1,.11-1.57,.7-1.42,1.78,0,.26,.1,.86,.31,1.79,.21,.93,.44,1.87,.71,2.82,.33,1.05,1.03,1.4,2.11,1.05l.1-.03c1.03-.33,1.37-1.03,1.02-2.11-.37-1.43-.66-2.7-.86-3.82Z"/>
      <path class="cls-1" d="M126.95,63.67l-.13,.03c-1.12-.26-1.82,.17-2.11,1.28-.24,1.05-.6,2.39-1.09,4.02-.48,1.62-1.02,3.26-1.61,4.91-.4,1.08-.07,1.81,.99,2.21l.16,.07c1.1,.4,1.82,.05,2.17-1.02,1.14-3.16,2.1-6.29,2.87-9.39,.31-1.1-.11-1.8-1.25-2.11Z"/>
      <path class="cls-1" d="M148.98,67.26c2.02,0,3.03-1.01,3.03-3.03v-7.97c0-2.04-1.01-3.06-3.03-3.06h-3.33v-2.34h5.1c1.05,0,1.58-.53,1.58-1.58v-.13c0-1.05-.53-1.58-1.58-1.58h-17.03c-1.01,0-1.77,.26-2.29,.77-.52,.52-.77,1.28-.77,2.29v11.33c0,2.26-.14,4.42-.41,6.49-.27,2.06-.7,4.09-1.27,6.09-.31,1.08,.05,1.78,1.09,2.11l.16,.03c.5,.18,.94,.17,1.32-.03,.37-.2,.63-.56,.76-1.09,.64-2.2,1.1-4.41,1.4-6.65,.3-2.24,.44-4.56,.44-6.95v-11.1h8.04v2.34h-3.29c-2.02,0-3.03,1.02-3.03,3.06v7.97c0,2.02,1.01,3.03,3.03,3.03h3.27s0,.02,0,.03v6.29h-.66c-1.05,0-1.58,.53-1.58,1.58v.13c0,1.05,.53,1.58,1.58,1.58h1.09c2.02,0,3.03-1.01,3.03-3.03v-6.55s0-.02,0-.03h3.36Zm-9.65-10.77h9.22v2.14h-9.22v-2.14Zm0,7.51v-2.21h9.22v2.21h-9.22Z"/>
      <path class="cls-1" d="M137.75,68.45l-.17-.03c-1.1-.11-1.71,.37-1.84,1.45,0,.15-.09,.62-.26,1.38-.18,.77-.38,1.6-.63,2.5-.33,1.03,.02,1.72,1.05,2.07l.13,.03c1.05,.35,1.73-.01,2.04-1.09,.5-1.78,.86-3.29,1.05-4.54,.18-1.08-.29-1.67-1.38-1.78Z"/>
      <path class="cls-1" d="M188.21,50.57v-.13c0-1.1-.54-1.65-1.61-1.65h-9.98v-.33c0-1.12-.55-1.68-1.65-1.68h-.46c-1.1,0-1.65,.56-1.65,1.68v.33h-9.12c-2.09,0-3.13,1.05-3.13,3.16v9.98c0,4.39-.74,8.44-2.21,12.15-.42,1.05-.1,1.8,.96,2.24l.1,.07c1.05,.48,1.79,.17,2.21-.92,1.67-4.17,2.5-8.68,2.5-13.54v-9.72h22.43c1.08,0,1.61-.55,1.61-1.65Z"/>
      <path class="cls-1" d="M186.76,69.64h-7.71v-3.49h6.42c1.08,0,1.61-.54,1.61-1.61v-.13c0-1.08-.54-1.61-1.61-1.61h-6.42v-.92c0-1.12-.57-1.68-1.71-1.68h-.13c-1.12,0-1.68,.56-1.68,1.68v.92h-3.89l2.55-4.15h11.78c1.08,0,1.61-.54,1.61-1.61v-.17c0-1.1-.54-1.65-1.61-1.65h-9.7c.43-.84,.22-1.53-.64-2.04l-.16-.07c-.92-.55-1.66-.36-2.21,.56l-.94,1.55h-4.86c-1.08,0-1.61,.55-1.61,1.65v.17c0,1.08,.54,1.61,1.61,1.61h2.79l-1.77,2.93c-.9,1.54-1.13,2.68-.69,3.44,.44,.76,1.53,1.14,3.26,1.14h4.48v3.49h-8.86c-1.08,0-1.61,.54-1.61,1.61v.17c0,1.08,.54,1.61,1.61,1.61h8.86v2.3c0,1.12,.56,1.68,1.68,1.68h.13c1.14,0,1.71-.56,1.71-1.68v-2.3h7.71c1.08,0,1.61-.54,1.61-1.61v-.17c0-1.08-.54-1.61-1.61-1.61Z"/>
      <path class="cls-1" d="M220.72,48.29h-6.39c-2.26,0-3.39,1.13-3.39,3.39v21.47c0,2.26,1.13,3.39,3.39,3.39h6.39c2.26,0,3.39-1.13,3.39-3.39v-21.47c0-2.26-1.13-3.39-3.39-3.39Zm-.33,24.47h-5.73v-20.68h5.73v20.68Z"/>
      <path class="cls-1" d="M208.17,63.61l-2.64-1.58c-.18-.1-.36-.17-.53-.23v-3.2h2.31c1.12,0,1.68-.57,1.68-1.71v-.13c0-1.12-.56-1.68-1.68-1.68h-2.31v-4.08h1.88c1.12,0,1.68-.56,1.68-1.68v-.13c0-1.12-.56-1.68-1.68-1.68h-9.75c-1.12,0-1.68,.56-1.68,1.68v.13c0,1.12,.56,1.68,1.68,1.68h4.22v4.08h-4.58c-1.12,0-1.68,.56-1.68,1.68v.13c0,1.14,.56,1.71,1.68,1.71h4.58v16.63c0,1.19,.59,1.78,1.78,1.78h.13c1.16,0,1.75-.58,1.75-1.75v-9.44l1.35,.81c.99,.57,1.76,.37,2.31-.59l.1-.13c.57-.99,.37-1.76-.59-2.31Z"/>
      <path class="cls-1" d="M197.56,60.61h-.13c-1.1,0-1.65,.55-1.65,1.65v2.34c0,1.45-.06,2.88-.18,4.3s-.31,2.79-.58,4.13c-.11,.55-.06,.99,.15,1.32,.21,.33,.58,.56,1.1,.69h.1c1.08,.29,1.71-.12,1.91-1.22,.61-2.92,.92-5.99,.92-9.22v-2.34c0-1.1-.55-1.65-1.65-1.65Z"/>
      <path class="cls-1" d="M259.38,72.83h-18.02c-1.12,0-1.97-.29-2.55-.86-.58-.57-.87-1.42-.87-2.54v-9.25c0-2.13-1.06-3.19-3.19-3.19h-1.71c-1.14,0-1.71,.57-1.71,1.71v.13c0,1.14,.57,1.71,1.71,1.71h1.35v8.89c0,.46,.05,.89,.13,1.32-.25,.09-.5,.25-.75,.49l-2.24,2.27c-.79,.79-.78,1.59,.03,2.4l.07,.07c.81,.81,1.61,.82,2.4,.03l1.98-2.04c.5,.6,1.09,1.11,1.79,1.51,1.06,.61,2.26,.92,3.57,.92h18.02c1.14,0,1.71-.57,1.71-1.71v-.17c0-1.14-.57-1.71-1.71-1.71Z"/>
      <path class="cls-1" d="M244.36,57.58l-.1,.03c-1.01,.53-1.26,1.3-.76,2.31l2.47,4.84c.53,1.01,1.28,1.26,2.27,.76l.1-.03c1.01-.53,1.26-1.29,.76-2.31l-2.44-4.84c-.53-1.03-1.3-1.29-2.31-.76Z"/>
      <path class="cls-1" d="M234.32,47.14l-.16,.07c-1.05,.42-1.37,1.16-.96,2.24l1.48,3.66c.42,1.05,1.15,1.37,2.21,.96l.17-.07c1.05-.42,1.37-1.15,.96-2.21l-1.48-3.69c-.42-1.05-1.15-1.37-2.21-.96Z"/>
      <path class="cls-1" d="M257.47,50.7v-2.14c0-1.16-.58-1.75-1.75-1.75h-.13c-1.19,0-1.78,.58-1.78,1.75v2.14h-11.92c-1.16,0-1.75,.57-1.75,1.71v.13c0,1.14,.58,1.71,1.75,1.71h11.92v13.24h-1.78c-1.12,0-1.68,.56-1.68,1.68v.1c0,1.14,.56,1.71,1.68,1.71h2.24c2.13,0,3.19-1.08,3.19-3.23v-13.5h1.81c1.14,0,1.71-.57,1.71-1.71v-.13c0-1.14-.57-1.71-1.71-1.71h-1.81Z"/>
      <path class="cls-1" d="M278.26,63.11l-1.58-1.19c-.23-.18-.45-.3-.66-.38v-2.95h1.12c1.14,0,1.71-.56,1.71-1.68v-.13c0-1.12-.57-1.68-1.71-1.68h-1.12v-4.12h.79c1.12,0,1.68-.56,1.68-1.68v-.13c0-1.14-.56-1.71-1.68-1.71h-7.61c-1.12,0-1.68,.57-1.68,1.71v.13c0,1.12,.56,1.68,1.68,1.68h3.29v4.12h-3.59c-1.12,0-1.68,.56-1.68,1.68v.13c0,1.12,.56,1.68,1.68,1.68h3.59v16.7c0,1.14,.57,1.71,1.71,1.71h.13c1.12,0,1.68-.56,1.68-1.68v-9.5l.07,.05c.9,.7,1.7,.62,2.4-.26l.07-.13c.7-.9,.6-1.69-.3-2.37Z"/>
      <path class="cls-1" d="M269.3,60.25h-.13c-.97,0-1.45,.49-1.45,1.48v2.57c0,1.49-.05,2.96-.17,4.41-.11,1.45-.3,2.88-.56,4.28-.18,.94,.21,1.53,1.15,1.75h.13c.94,.24,1.5-.14,1.68-1.15,.29-1.49,.49-3.04,.63-4.63,.13-1.59,.2-3.14,.2-4.66v-2.57c0-.99-.49-1.48-1.48-1.48Z"/>
      <path class="cls-1" d="M292.98,58.08c1.05,0,1.84-.27,2.37-.81,.53-.54,.79-1.32,.79-2.36v-4.51c0-1.05-.27-1.85-.81-2.39s-1.32-.81-2.35-.81h-9.75c-1.08,0-1.88,.28-2.4,.82-.53,.55-.79,1.34-.79,2.37v4.51c0,1.05,.27,1.84,.81,2.37,.54,.53,1.33,.79,2.39,.79h9.75Zm-9.35-7.41h8.93v3.98h-8.93v-3.98Z"/>
      <path class="cls-1" d="M295.88,73.06h-5.97s0-.02,0-.03v-2.87h4.81c1.08,0,1.61-.54,1.61-1.61v-.13c0-1.08-.54-1.61-1.61-1.61h-4.79v-2.9s0-.04,0-.07h5.38c1.08,0,1.61-.54,1.61-1.61v-.13c0-1.1-.54-1.65-1.61-1.65h-14.43c-1.08,0-1.61,.55-1.61,1.65v.13c0,1.08,.54,1.61,1.61,1.61h5.41s0,.04,0,.07v2.9h-4.78c-1.1,0-1.65,.54-1.65,1.61v.13c0,1.08,.55,1.61,1.65,1.61h4.75v2.87s0,.02,0,.03h-5.93c-1.1,0-1.65,.55-1.65,1.65v.13c0,1.08,.55,1.61,1.65,1.61h15.55c1.08,0,1.61-.54,1.61-1.61v-.13c0-1.1-.54-1.65-1.61-1.65Z"/>
      <path class="cls-1" d="M308.79,47.93c-.55-1.05-1.35-1.32-2.4-.79l-.17,.07c-1.08,.53-1.33,1.32-.76,2.37l1.75,3.69c.55,1.05,1.36,1.32,2.44,.79l.16-.07c1.05-.53,1.31-1.32,.76-2.37l-1.78-3.69Z"/>
      <path class="cls-1" d="M316.2,61.67h.17c1.12-.18,1.59-.83,1.42-1.98l-.79-4.87c-.18-1.12-.82-1.59-1.94-1.42l-.17,.03c-1.12,.18-1.59,.82-1.42,1.94l.79,4.88c.18,1.12,.82,1.59,1.94,1.42Z"/>
      <path class="cls-1" d="M310.04,72.83h-.92v-12.81c0-1.1-.28-1.93-.84-2.5-.56-.57-1.39-.86-2.49-.86h-.96c-1.21,0-1.81,.61-1.81,1.84v.1c0,1.23,.6,1.84,1.81,1.84h.66v12.81c0,1.1,.28,1.93,.84,2.49,.56,.56,1.39,.84,2.49,.84h1.22c1.21,0,1.81-.6,1.81-1.81v-.13c0-1.21-.6-1.81-1.81-1.81Z"/>
      <path class="cls-1" d="M332.01,63.81h-7.31v-12.55h7.01c1.12,0,1.68-.56,1.68-1.68v-.13c0-1.12-.56-1.68-1.68-1.68h-17.79c-1.12,0-1.68,.56-1.68,1.68v.13c0,1.12,.56,1.68,1.68,1.68h7.11v12.55h-7.34c-1.12,0-1.68,.56-1.68,1.68v.17c0,1.12,.56,1.68,1.68,1.68h7.34v7.94c0,1.16,.59,1.75,1.78,1.75h.13c1.16,0,1.75-.58,1.75-1.75v-7.94h7.31c1.12,0,1.68-.56,1.68-1.68v-.17c0-1.12-.56-1.68-1.68-1.68Z"/>
      <path class="cls-1" d="M330.69,53.4c-1.12-.18-1.77,.3-1.94,1.42l-.79,4.87c-.2,1.14,.27,1.8,1.42,1.98h.13c1.12,.18,1.77-.3,1.94-1.42l.82-4.88c.17-1.12-.31-1.77-1.45-1.94l-.13-.03Z"/>
      <path class="cls-1" d="M345.02,58.17c.16-.36,.32-.71,.48-1.08,1.09-2.52,2.09-5.13,3.01-7.81,.2-.55,.2-.98,0-1.3-.2-.32-.57-.61-1.12-.87l-.13-.03c-.5-.24-.95-.26-1.33-.05s-.67,.6-.87,1.17c-1.69,4.83-3.54,9.17-5.53,13.01-.29,.53-.4,1.01-.33,1.45,.07,.44,.26,.92,.59,1.45l.07,.1c.33,.48,.74,.69,1.22,.61,.48-.08,.89-.41,1.22-1,.22-.41,.44-.83,.66-1.26v12.76c0,1.19,.58,1.78,1.75,1.78h.13c1.19,0,1.78-.59,1.78-1.78v-15.41c0-1.09-.54-1.65-1.58-1.72Z"/>
      <path class="cls-1" d="M364.09,59.1h.13c.96,0,1.75,.78,1.75,1.75v14.46c0,.96-.78,1.75-1.75,1.75h-.13c-.96,0-1.75-.78-1.75-1.75v-14.46c0-.96,.78-1.75,1.75-1.75Z"/>
      <path class="cls-1" d="M353.78,59.1h-.13c-1.16,0-1.75,.58-1.75,1.75v3.42c0,1.76-.23,3.44-.68,5.06-.45,1.61-1.16,3.16-2.12,4.63-.35,.5-.5,.96-.44,1.37,.05,.41,.3,.81,.74,1.2l.17,.07c.92,.77,1.72,.66,2.4-.33,1.19-1.8,2.08-3.72,2.68-5.75,.6-2.03,.91-4.11,.91-6.24v-3.42c0-1.16-.59-1.75-1.78-1.75Z"/>
      <path class="cls-1" d="M366.34,53.28c-1.22-1.64-2.32-3.31-3.31-5.02-.57-1.01-1.43-1.52-2.57-1.52h-2.96c-1.16,0-2.01,.46-2.54,1.38-.68,1.25-1.6,2.69-2.77,4.31s-2.43,3.19-3.79,4.71c-.81,.88-.79,1.72,.07,2.54l.1,.07c.86,.81,1.68,.78,2.47-.1,1.29-1.45,2.52-2.96,3.67-4.54,1.15-1.58,2.2-3.16,3.15-4.74h2.21c.99,1.62,2.05,3.23,3.19,4.81s2.35,3.07,3.62,4.48c.81,.88,1.65,.91,2.5,.1l.07-.07c.86-.81,.88-1.66,.07-2.54-.9-.94-1.96-2.23-3.18-3.87Z"/>
      <path class="cls-1" d="M383.45,69.83c-.81-.81-1.63-.81-2.44,0-.29,.29-.75,.74-1.4,1.35-.65,.62-1.34,1.22-2.09,1.81-.44,.4-.68,.78-.72,1.15s.11,.78,.46,1.22l.07,.17c.68,.86,1.47,.93,2.37,.23,1.34-1.14,2.61-2.31,3.82-3.49,.81-.79,.81-1.59,0-2.4l-.07-.03Z"/>
      <path class="cls-1" d="M401.34,67.66c1.05,0,1.84-.27,2.37-.81s.79-1.33,.79-2.39v-1.98c0-1.12-.56-1.68-1.68-1.68h-.16c-1.14,0-1.71,.57-1.71,1.71v1.68h-11.8l11.66-8.07c.88-.64,1.01-1.38,.4-2.24l-.1-.17c-.64-.88-1.38-1.01-2.24-.4l-4.66,3.23c-.2-.06-.42-.1-.67-.1h-6.29l4.54-3.19c.88-.6,1.02-1.33,.44-2.2,3.76-.06,7.33-.36,10.69-.93,1.08-.2,1.5-.84,1.28-1.94v-.1c-.22-1.08-.88-1.53-1.98-1.35-3.62,.62-7.44,.92-11.46,.92h-11.4c-1.08,0-1.61,.54-1.61,1.61v.17c0,1.1,.54,1.65,1.61,1.65h9.52l-6.99,4.94c-.92,.64-1.49,1.26-1.7,1.86-.21,.6-.06,1.09,.45,1.45,.5,.36,1.27,.54,2.31,.54h6.43l-5.38,3.72c-.26,.19-.44,.39-.57,.59h-5.49c-1.1,0-1.65,.56-1.65,1.68v.1c0,1.12,.55,1.68,1.65,1.68h11.64s0,.04,0,.07v5.9h-1.12c-1.12,0-1.68,.56-1.68,1.68v.13c0,1.12,.56,1.68,1.68,1.68h1.58c1.05,0,1.85-.28,2.4-.82,.55-.55,.82-1.35,.82-2.4v-6.16s0-.04,0-.07h8.08Z"/>
      <path class="cls-1" d="M400.91,69.83c-.81-.81-1.62-.81-2.44,0l-.07,.03c-.81,.81-.81,1.62,0,2.44,.33,.31,.83,.77,1.52,1.38,.68,.61,1.45,1.31,2.3,2.08,.9,.7,1.69,.63,2.37-.23l.07-.17c.35-.44,.5-.85,.46-1.22s-.29-.76-.72-1.15c-1.25-1.08-2.42-2.13-3.49-3.16Z"/>
      <path class="cls-1" d="M420.44,72.3h-6.69c-1.21,0-1.81,.61-1.81,1.84v.1c0,1.23,.6,1.84,1.81,1.84h6.69c1.23,0,1.84-.62,1.84-1.84v-.1c0-1.23-.62-1.84-1.84-1.84Z"/>
      <path class="cls-1" d="M421.76,55.54l-.13-.1c-.97-.59-1.75-.41-2.34,.56l-1.66,2.62-1.67-1.21,4.78-7.58c.59-.99,.41-1.77-.56-2.34l-.13-.1c-.99-.59-1.77-.41-2.34,.56l-4.91,7.81c-1.03,1.69-.78,3.11,.76,4.25l2.16,1.61-1.44,2.27c-1.01,1.6-1.28,2.82-.81,3.64,.47,.82,1.64,1.24,3.51,1.24h3.59c1.14,0,1.71-.56,1.71-1.68v-.2c0-1.12-.57-1.68-1.71-1.68h-2.93l4.68-7.34c.59-.97,.41-1.75-.56-2.34Z"/>
      <path class="cls-1" d="M441.09,73.19h-3.26v-9.65h.59c1.08,0,1.88-.27,2.4-.82,.53-.55,.79-1.34,.79-2.37v-1.75c0-1.12-.57-1.68-1.71-1.68h-.13c-1.12,0-1.68,.56-1.68,1.68v1.45h-10.01l4.22-6.26c.14-.21,.23-.4,.29-.59h8.01c1.1,0,1.65-.56,1.65-1.68v-.16c0-1.1-.55-1.65-1.65-1.65h-6.19v-1.15c0-1.16-.58-1.75-1.75-1.75h-.13c-1.16,0-1.75,.58-1.75,1.75v1.15h-6.22c-1.12,0-1.68,.56-1.68,1.68v.1c0,1.14,.56,1.71,1.68,1.71h3.89l-3.66,5.4c-1.1,1.62-1.42,2.85-.97,3.69,.43,.81,1.58,1.22,3.41,1.25,.04,1.9-.26,3.7-.91,5.39-.65,1.7-1.66,3.21-3.05,4.53-.42,.42-.65,.82-.71,1.22-.06,.4,.09,.81,.44,1.25l.07,.13c.7,.92,1.49,1,2.37,.23,1.65-1.51,2.91-3.34,3.8-5.48,.89-2.13,1.39-4.55,1.53-7.26h3.46v9.98c0,1.05,.27,1.85,.82,2.39,.55,.54,1.34,.81,2.37,.81h3.66c1.12,0,1.68-.56,1.68-1.68v-.17c0-1.12-.56-1.68-1.68-1.68Z"/>
      <path class="cls-1" d="M90.31,36.1c.1,0,.2,0,.29-.03,.37-.02,.89-.19,1.37-.93,.23-.46,.38-.88,.38-1.43V10.53l-.27-1.28-1.58-1.15-1.57,.63-.51,1.54-.03,23.44c0,.7,.17,1.23,.59,1.78,.4,.4,.87,.61,1.33,.61Z"/>
      <path class="cls-1" d="M117.83,32.84c-.4-.27-.93-.41-1.49-.41h-15.49c-.32,0-.77-.07-1.27-.19-.24-.08-.34-.23-.37-.3-.18-.37-.25-.79-.18-1.08l.02-7.09h14.33c.52,0,1.03-.13,1.37-.25l.12-.06c.5-.33,.77-.83,.77-1.4,0-.7-.23-1.23-.59-1.45-.39-.39-.91-.58-1.56-.58h-14.22v-5.76c0-.4,0-.78,.08-1.15,.09-.18,.16-.32,.24-.41,.24-.16,.57-.25,.93-.25h15.49c.46,0,.96-.18,1.56-.59,.49-.49,.7-1.08,.58-1.62-.03-.51-.35-1.11-.82-1.26-.54-.27-.98-.27-1.32-.27h-17.48c-.2,.07-.38,.09-.56,.12-.21,.03-.41,.06-.63,.11-.59,.12-1.02,.35-1.46,.8-.37,.37-.65,.88-.8,1.48-.12,.7-.12,1.28-.12,1.95V31.5c0,.67,0,1.37,.12,1.96,.13,.64,.4,1.17,.8,1.57,.48,.48,1.09,.77,1.94,.91,.88,.11,1.78,.22,2.7,.22h15.71c.56,0,1.09-.15,1.43-.38,.71-.35,.82-.94,.83-1.38,.12-.59-.15-1.23-.66-1.57Z"/>
      <path class="cls-1" d="M123.25,28.74c.54,1.22,1.13,2.17,1.84,2.98,.92,1.03,1.96,1.85,3.12,2.42,1.18,.59,2.61,1.23,4.21,1.47,1.07,.18,2.11,.27,3.07,.27,.39,0,.76-.01,1.12-.04,1.12-.11,2.26-.34,3.41-.68,1.81-.64,3.55-1.83,5.05-3.44,.63-.73,1.19-1.5,1.77-2.43,.51-.53,.76-1.19,.76-1.96l-.02-.12c-.17-.69-.52-1.17-.98-1.39-.54-.36-1.17-.41-1.79-.09-.55,.41-.9,.81-1.11,1.24l-.85,1.38c-.43,.54-.84,1.05-1.39,1.49-.63,.63-1.25,1.04-1.96,1.44-.93,.47-1.74,.74-2.47,.83l-.28,.04c-.77,.1-1.43,.18-2.19,.18-.82,0-1.64-.21-2.46-.41-.9-.34-1.6-.65-2.32-1.16-1.53-.98-2.6-2.33-3.08-3.88-.21-.85-.43-1.72-.54-2.56-.11-.96-.11-1.81-.11-2.8,0-1.05,.22-2.14,.43-3.19,.23-1.02,.68-2.04,1.25-2.81,.58-.93,1.2-1.58,1.91-2.03,.65-.37,1.53-.83,2.5-1.04,1.62-.36,3.57-.48,5.31,0,.65,.09,1.36,.38,1.99,.8,.71,.48,1.17,.87,1.53,1.32l.08,.08c.29,.23,.52,.51,.76,.8,.17,.21,.34,.41,.46,.51,.25,.37,.6,.72,.89,1.01,.42,.56,1.02,.86,1.72,.86,.61,0,1.2-.3,1.45-.7,.18-.18,.59-.65,.59-1.23,0-.54-.15-1.07-.51-1.79-.46-.8-1.14-1.61-1.84-2.19-.73-.73-1.38-1.23-1.9-1.64l-.38-.29c-.7-.47-1.5-.81-2.28-1.14-.84-.36-1.65-.58-2.57-.7-.87-.11-1.77-.22-2.68-.22-1,0-2.03,0-3.08,.23-1.95,.46-3.77,1.37-5.3,2.67-.66,.66-1.34,1.34-1.91,2.14-.71,.99-1.19,1.85-1.47,2.59-.5,1-.82,2.04-.93,3.02-.12,1.04-.22,2.14-.22,3.13,0,1.23,.11,2.48,.34,3.72,.24,1.2,.58,2.3,1.02,3.29Z"/>
      <path class="cls-1" d="M162.17,36.03c.82,0,1.61-.06,2.34-.18,1.03-.1,2.16-.4,3.42-.91,.88-.33,1.72-.89,2.51-1.69,.55-.66,1.13-1.35,1.59-2.16,.5-.88,.83-1.82,.94-2.72l.03-.28c.1-.99,.19-1.93,.19-2.96V9.8c-.15-1.03-1.16-1.78-2.15-1.64-.23,0-.99,.05-1.4,.66l-.06,.12c-.07,.22-.25,.79-.25,1.26l.33,14.55c-.04,.34-.06,.7-.09,1.06-.05,.66-.09,1.35-.23,1.95-.24,.96-.57,1.73-1.02,2.36-.43,.61-1.17,1.13-2.06,1.46-.95,.32-1.92,.53-2.86,.64-.91,.1-1.92,0-2.96-.11-.98-.11-1.93-.33-2.71-.62-.62-.26-1.11-.62-1.71-1.21-.48-.48-.88-1.18-1.08-1.88-.28-.93-.42-2.02-.42-3.26V10.53c0-.67-.26-1.19-.52-1.71-.34-.51-.98-.78-1.57-.66-.67,.01-1.18,.24-1.49,.71-.24,.48-.38,1.1-.38,1.65v14.94c0,1.23,.11,2.48,.34,3.73,.22,.98,.65,1.92,1.29,2.82,.63,.88,1.46,1.67,2.34,2.22,.98,.61,2.02,1.05,3.01,1.27,1.02,.23,2.04,.34,3.03,.45,.55,.05,1.08,.07,1.6,.07Z"/>
      <path class="cls-1" d="M198,33.48c.55-.64,1.23-1.51,1.63-2.57,.4-1.07,.58-1.97,.58-2.92,0-1.05-.15-1.97-.46-2.77-.2-.71-.58-1.39-1.18-2.14-.36-.48-.83-.95-1.31-1.31l-.08-.05c-.27-.14-.55-.32-.88-.57l1.09-1.01c.69-.57,1.21-1.4,1.47-2.29,.35-.94,.48-2.01,.36-3.08-.13-1.26-.52-2.31-1.19-3.21-.58-.81-1.28-1.51-2.13-2.12-.58-.35-1.16-.58-1.72-.8l-.1-.03c-.67-.11-1.46-.23-2.28-.23h-11.2c-.48,0-1.09,.08-1.88,.23-.5,.12-.91,.37-1.33,.79-.43,.43-.57,.87-.68,1.33-.12,.5-.12,1.08-.12,1.55V31.52c-.12,.65,0,1.25,.12,1.87,.12,.5,.37,.91,.79,1.33,.4,.4,.93,.67,1.59,.8l.24,.04c.56,.1,1.09,.19,1.71,.19h11.2c1.2,0,2.19-.15,3.01-.46,1.11-.37,2.06-.99,2.75-1.8Zm-17.67-20.2c0-.34,.08-.59,.2-.67,.44-.27,.87-.35,1.39-.26h8.57c1.18,0,2.04,0,2.55,.1,.54,.09,.98,.35,1.38,.85,.51,.51,.87,1.19,.96,1.83,.1,.48,.1,1.08,0,1.59-.1,.7-.29,1.15-.63,1.58-.51,.51-1.11,.9-1.69,1.09-.74,.28-1.52,.41-2.46,.41h-10.26v-6.53Zm13.49,18.42c-.75,.28-1.55,.41-2.57,.41h-8.79c-.76,0-1.32-.12-1.79-.34-.24-.18-.35-.42-.35-.81v-7.52h10.88c.72-.09,1.41-.03,2.17,.18,.5,.2,1.01,.51,1.48,.88,.41,.41,.99,1.04,1.21,1.82,.3,.69,.39,1.38,.29,2.15-.09,.65-.38,1.35-.8,1.99-.37,.55-1.04,1.04-1.74,1.24Z"/>
      <path class="cls-1" d="M225.69,32.84c-.4-.27-.93-.41-1.49-.41h-15.49c-.31,0-.74-.07-1.25-.19-.11-.07-.23-.19-.28-.3-.17-.33-.17-.82-.17-1.2v-6.97h14.33c.52,0,1.03-.13,1.37-.25l.12-.06c.48-.32,.75-.8,.77-1.34,.12-.59-.14-1.23-.58-1.51-.39-.39-.91-.58-1.56-.58h-14.33v-5.76c0-.4,0-.78,.08-1.15,.09-.18,.17-.33,.32-.48,.07-.07,.34-.18,.75-.18h15.49c.46,0,.96-.18,1.56-.59,.49-.49,.7-1.08,.58-1.62-.03-.51-.35-1.11-.82-1.26-.54-.27-.98-.27-1.32-.27h-17.26c-.2,.07-.38,.09-.56,.12-.21,.03-.41,.06-.65,.12-.5,.12-.91,.37-1.33,.79-.37,.37-.65,.88-.8,1.48-.12,.7-.12,1.28-.12,1.95V31.5c0,.67,0,1.37,.12,1.96,.13,.64,.4,1.17,.8,1.57,.48,.48,1.09,.77,1.94,.91,.88,.11,1.78,.22,2.7,.22h15.6c.56,0,1.09-.15,1.49-.41,.44-.3,.66-.76,.66-1.41,0-.7-.23-1.22-.66-1.51Z"/>
    </g>
  </g>
</svg>